<?xml version="1.0" encoding="UTF-8"?>
<svg width="787px" height="475px" viewBox="0 0 787 475" version="1.1" xmlns="http://www.w3.org/2000/svg" xmlns:xlink="http://www.w3.org/1999/xlink">
    <title>Group 33</title>
    <g id="Page-1" stroke="none" stroke-width="1" fill="none" fill-rule="evenodd">
        <g id="Group-33" transform="translate(0.000000, 0.196220)">
            <g id="Group-5" transform="translate(0.000000, 342.803780)" fill="#8993FE">
                <rect id="Rectangle-Copy-10" x="0" y="0" width="246" height="88" rx="30"></rect>
            </g>
            <g id="Group-29" transform="translate(256.000000, 355.803780)">
                <circle id="Oval-Copy-2" fill="#BDB8FF" cx="30.5" cy="30.5" r="30.5"></circle>
                <g id="arrow-right-2-copy" transform="translate(15.000000, 19.000000)" fill="#2F2E6B" fill-rule="nonzero">
                    <g id="arrow-right">
                        <path d="M19.9921381,0.460513832 C20.5468652,-0.102336407 21.4175337,-0.149240594 22.0249178,0.319801272 L22.1836051,0.460513832 L27.8382594,6.19797133 C30.6244988,9.02490043 30.7173735,13.5468947 28.1169058,16.501991 L27.8382842,16.8019674 L22.1836085,22.5394827 C21.5784535,23.153503 20.5973003,23.1535062 19.9921415,22.5394897 C19.4374126,21.9766412 19.3911826,21.0932233 19.8534534,20.4769436 L19.9921346,20.3159322 L25.6436974,14.5815844 C27.2436392,12.9489406 27.3163638,10.3670434 25.8645817,8.65936117 L25.6468138,8.4215505 L19.9921381,2.68407131 C19.3869812,2.07005287 19.3869812,1.07453228 19.9921381,0.460513832 Z" id="Path"></path>
                        <path d="M21.1052908,9.92365857 C21.9611119,9.92365857 22.654892,10.6275979 22.654892,11.4959511 C22.654892,12.2975079 22.0637421,12.9589725 21.2996695,13.0559933 L21.1052908,13.0682437 L1.54960118,13.0682437 C0.693780081,13.0682437 0,12.3643043 0,11.4959511 C0,10.6943943 0.591149892,10.0329298 1.3552225,9.93590896 L1.54960118,9.92365857 L21.1052908,9.92365857 Z" id="Path"></path>
                    </g>
                </g>
            </g>
            <g id="Group-29-Copy" transform="translate(512.000000, 355.803780)">
                <circle id="Oval-Copy-2" fill="#FF4572" cx="30.5" cy="30.5" r="30.5"></circle>
                <g id="arrow-right-2-copy" transform="translate(15.000000, 19.000000)" fill="#FFFFFF" fill-rule="nonzero">
                    <g id="arrow-right">
                        <path d="M19.9921381,0.460513832 C20.5468652,-0.102336407 21.4175337,-0.149240594 22.0249178,0.319801272 L22.1836051,0.460513832 L27.8382594,6.19797133 C30.6244988,9.02490043 30.7173735,13.5468947 28.1169058,16.501991 L27.8382842,16.8019674 L22.1836085,22.5394827 C21.5784535,23.153503 20.5973003,23.1535062 19.9921415,22.5394897 C19.4374126,21.9766412 19.3911826,21.0932233 19.8534534,20.4769436 L19.9921346,20.3159322 L25.6436974,14.5815844 C27.2436392,12.9489406 27.3163638,10.3670434 25.8645817,8.65936117 L25.6468138,8.4215505 L19.9921381,2.68407131 C19.3869812,2.07005287 19.3869812,1.07453228 19.9921381,0.460513832 Z" id="Path"></path>
                        <path d="M21.1052908,9.92365857 C21.9611119,9.92365857 22.654892,10.6275979 22.654892,11.4959511 C22.654892,12.2975079 22.0637421,12.9589725 21.2996695,13.0559933 L21.1052908,13.0682437 L1.54960118,13.0682437 C0.693780081,13.0682437 0,12.3643043 0,11.4959511 C0,10.6943943 0.591149892,10.0329298 1.3552225,9.93590896 L1.54960118,9.92365857 L21.1052908,9.92365857 Z" id="Path"></path>
                    </g>
                </g>
            </g>
            <g id="Group-23" transform="translate(327.000000, 299.803780)" fill="#8993FE">
                <rect id="Rectangle" x="0" y="0" width="175" height="175" rx="30"></rect>
            </g>
            <g id="Group-32" transform="translate(583.171429, 320.303780)">
                <rect id="Rectangle" fill="#FF4572" x="0" y="0" width="203.657143" height="132" rx="13"></rect>
                <path d="M64.3990487,61.5 L64.3990487,48.7156174 L64.442533,48.7156174 L69.1388368,61.5 L70.8782086,61.5 L75.5745124,48.7156174 L75.6179967,48.7156174 L75.6179967,61.5 L77.5747899,61.5 L77.5747899,45.9543647 L74.9005058,45.9543647 L70.0302648,58.8692002 L69.9867805,58.8692002 L65.1165395,45.9543647 L62.4422554,45.9543647 L62.4422554,61.5 L64.3990487,61.5 Z M83.206006,61.8043901 C85.0323464,61.8043901 86.2716488,61.1521256 86.9673975,60.1085026 L87.0108818,60.1085026 C87.3152719,61.3260628 87.9457941,61.6087107 88.9894172,61.6087107 C89.3155494,61.6087107 89.554713,61.5869686 90.0112981,61.4347736 L90.0112981,60.2172133 C88.9024486,60.3476662 88.7502536,59.869339 88.7502536,58.9996531 L88.7502536,53.6076006 C88.7502536,50.9333165 86.8586868,50.1071149 84.7496985,50.1071149 C81.5318607,50.1071149 80.2055897,51.7160338 80.096879,53.8467642 L81.8362508,53.8467642 C81.9449615,52.2378453 82.6407102,51.6290652 84.7496985,51.6290652 C86.5325546,51.6290652 87.0108818,52.3682982 87.0108818,53.2379841 C87.0108818,54.3468336 86.162938,54.5859972 84.2931134,54.9338715 C81.42315,55.4774252 79.5533253,56.1296896 79.5533253,58.6517787 C79.5533253,60.5216034 80.9665649,61.8043901 83.206006,61.8043901 Z M83.3799432,60.2824398 C81.9449615,60.2824398 81.2926971,59.6519175 81.2926971,58.5648101 C81.2926971,57.2385391 82.2928358,56.6949855 84.4453084,56.2384004 C85.6193844,55.9992368 86.6847496,55.6948467 87.0108818,55.3687145 L87.0108818,57.216797 C87.0108818,59.3475274 85.4454472,60.2824398 83.3799432,60.2824398 Z M93.1204252,61.5 L93.1204252,45.9543647 L91.3810534,45.9543647 L91.3810534,61.5 L93.1204252,61.5 Z M96.6643952,48.2590323 C97.1644645,48.2590323 97.7515025,47.8894158 97.7515025,47.2154093 C97.7515025,46.5414027 97.1644645,46.1717862 96.6643952,46.1717862 C96.1860679,46.1717862 95.5772878,46.5414027 95.5772878,47.2154093 C95.5772878,47.8894158 96.1860679,48.2590323 96.6643952,48.2590323 Z M97.534081,61.5 L97.534081,50.4115049 L95.7947093,50.4115049 L95.7947093,61.5 L97.534081,61.5 Z M104.882927,61.8043901 C107.622437,61.8043901 109.600973,59.9345654 109.753168,57.4124763 L108.013796,57.4124763 C107.926827,58.7387473 107.122368,60.2824398 104.882927,60.2824398 C102.252127,60.2824398 101.251988,58.0429986 101.251988,55.9557525 C101.251988,53.8685063 102.252127,51.6290652 104.882927,51.6290652 C107.100626,51.6290652 107.926827,53.1944998 108.013796,54.41206 L109.753168,54.41206 C109.492262,51.9334552 107.622437,50.1071149 104.882927,50.1071149 C101.643347,50.1071149 99.5126164,52.4770089 99.5126164,55.9557525 C99.5126164,59.434496 101.643347,61.8043901 104.882927,61.8043901 Z M112.51442,48.2590323 C113.01449,48.2590323 113.601528,47.8894158 113.601528,47.2154093 C113.601528,46.5414027 113.01449,46.1717862 112.51442,46.1717862 C112.036093,46.1717862 111.427313,46.5414027 111.427313,47.2154093 C111.427313,47.8894158 112.036093,48.2590323 112.51442,48.2590323 Z M113.384106,61.5 L113.384106,50.4115049 L111.644735,50.4115049 L111.644735,61.5 L113.384106,61.5 Z M120.798179,61.8043901 C124.168211,61.8043901 126.211973,59.4127539 126.211973,55.9557525 C126.211973,52.4987511 124.168211,50.1071149 120.798179,50.1071149 C117.406404,50.1071149 115.362642,52.4987511 115.362642,55.9557525 C115.362642,59.4127539 117.406404,61.8043901 120.798179,61.8043901 Z M120.798179,60.2824398 C118.297832,60.2824398 117.102014,58.3256465 117.102014,55.9557525 C117.102014,53.5858584 118.297832,51.6290652 120.798179,51.6290652 C123.276783,51.6290652 124.472601,53.5858584 124.472601,55.9557525 C124.472601,58.3256465 123.276783,60.2824398 120.798179,60.2824398 Z M131.625768,61.8043901 C133.517335,61.8043901 134.691411,60.9564463 135.278449,60.173729 L135.321933,60.173729 L135.321933,61.5 L137.061305,61.5 L137.061305,50.4115049 L135.321933,50.4115049 L135.321933,57.3255077 C135.321933,59.0431374 134.017404,60.2824398 132.060611,60.2824398 C130.321239,60.2824398 129.647232,59.1518481 129.647232,57.7168664 L129.647232,50.4115049 L127.907861,50.4115049 L127.907861,58.1517093 C127.907861,60.6955406 129.603748,61.8043901 131.625768,61.8043901 Z M143.80137,61.8043901 C146.323459,61.8043901 148.171542,60.4781191 148.171542,58.4560994 C148.171542,55.7165888 145.932101,55.3904566 143.953565,54.9121294 C142.409873,54.5425129 140.909665,54.4338022 140.909665,53.1292733 C140.909665,52.2595874 141.757608,51.6290652 143.323043,51.6290652 C145.410289,51.6290652 145.82339,52.7379147 145.997327,53.5858584 L147.736699,53.5858584 C147.562762,51.6725495 146.084296,50.1071149 143.323043,50.1071149 C140.713985,50.1071149 139.170293,51.5203544 139.170293,53.2597262 C139.170293,55.8687839 141.692382,56.0644632 143.38827,56.477564 C144.975446,56.8689226 146.43217,56.9558912 146.43217,58.5648101 C146.43217,59.3040431 145.692937,60.2824398 143.80137,60.2824398 C141.018375,60.2824398 140.583533,59.0431374 140.474822,57.803835 L138.73545,57.803835 C138.844161,60.1954712 140.409595,61.8043901 143.80137,61.8043901 Z M77.0529784,88.2385417 L78.4227336,84.3466973 L85.27151,84.3466973 L86.6412653,88.2385417 L88.663285,88.2385417 L82.9451003,72.6929064 L80.7708855,72.6929064 L75.0309587,88.2385417 L77.0529784,88.2385417 Z M84.6409877,82.6073255 L79.0749981,82.6073255 L81.8362508,74.4975046 L81.879735,74.4975046 L84.6409877,82.6073255 Z M94.8163126,88.5429317 C97.5558232,88.5429317 99.5343586,86.6731071 99.6865536,84.151018 L97.9471818,84.151018 C97.8602132,85.477289 97.0557538,87.0209814 94.8163126,87.0209814 C92.1855128,87.0209814 91.1853741,84.7815403 91.1853741,82.6942941 C91.1853741,80.607048 92.1855128,78.3676068 94.8163126,78.3676068 C97.0340117,78.3676068 97.8602132,79.9330414 97.9471818,81.1506017 L99.6865536,81.1506017 C99.4256478,78.6719969 97.5558232,76.8456565 94.8163126,76.8456565 C91.5767327,76.8456565 89.4460023,79.2155506 89.4460023,82.6942941 C89.4460023,86.1730377 91.5767327,88.5429317 94.8163126,88.5429317 Z M104.882927,88.3689945 C105.339512,88.3689945 105.796097,88.3255102 106.187456,88.2385417 L106.187456,86.7165914 C104.70899,86.8253021 104.013241,86.6078806 104.013241,85.3468361 L104.013241,78.6719969 L106.187456,78.6719969 L106.187456,77.1500466 L104.013241,77.1500466 L104.013241,73.4538816 L102.273869,73.4538816 L102.273869,77.1500466 L100.643208,77.1500466 L100.643208,78.6719969 L102.273869,78.6719969 L102.273869,85.5207733 C102.273869,87.7819566 103.404461,88.3689945 104.882927,88.3689945 Z M109.100903,74.997574 C109.600973,74.997574 110.188011,74.6279575 110.188011,73.9539509 C110.188011,73.2799444 109.600973,72.9103279 109.100903,72.9103279 C108.622576,72.9103279 108.013796,73.2799444 108.013796,73.9539509 C108.013796,74.6279575 108.622576,74.997574 109.100903,74.997574 Z M109.970589,88.2385417 L109.970589,77.1500466 L108.231217,77.1500466 L108.231217,88.2385417 L109.970589,88.2385417 Z M117.384661,88.5429317 C120.754694,88.5429317 122.798456,86.1512955 122.798456,82.6942941 C122.798456,79.2372927 120.754694,76.8456565 117.384661,76.8456565 C113.992886,76.8456565 111.949125,79.2372927 111.949125,82.6942941 C111.949125,86.1512955 113.992886,88.5429317 117.384661,88.5429317 Z M117.384661,87.0209814 C114.884315,87.0209814 113.688496,85.0641882 113.688496,82.6942941 C113.688496,80.3244001 114.884315,78.3676068 117.384661,78.3676068 C119.863266,78.3676068 121.059084,80.3244001 121.059084,82.6942941 C121.059084,85.0641882 119.863266,87.0209814 117.384661,87.0209814 Z M126.298942,88.2385417 L126.298942,81.3245388 C126.298942,79.6069092 127.603471,78.3676068 129.560264,78.3676068 C131.299636,78.3676068 131.973642,79.4981985 131.973642,80.9331802 L131.973642,88.2385417 L133.713014,88.2385417 L133.713014,80.4983373 C133.713014,77.954506 132.017127,76.8456565 129.995107,76.8456565 C128.10354,76.8456565 126.929464,77.6936003 126.342426,78.4763176 L126.298942,78.4763176 L126.298942,77.1500466 L124.55957,77.1500466 L124.55957,88.2385417 L126.298942,88.2385417 Z" id="MaliciousAction" fill="#FFFFFF" fill-rule="nonzero"></path>
            </g>
            <rect id="Rectangle-Copy-13" stroke="#FF4572" stroke-width="5" fill="#F2F3FF" x="307.5" y="20.30378" width="214" height="181" rx="13"></rect>
            <rect id="Rectangle-Copy" fill="#FF4572" x="326" y="36.80378" width="175" height="78" rx="30"></rect>
            <rect id="Rectangle-Copy-9" fill="#FFE0E7" x="326" y="123.80378" width="175" height="61" rx="30"></rect>
            <path d="M355.024426,69.80378 L355.024426,54.2581447 L353.067632,54.2581447 L353.067632,69.80378 L355.024426,69.80378 Z M359.459824,69.80378 L359.459824,62.8897772 C359.459824,61.1721476 360.764353,59.9328452 362.721146,59.9328452 C364.460518,59.9328452 365.134524,61.0634368 365.134524,62.4984185 L365.134524,69.80378 L366.873896,69.80378 L366.873896,62.0635756 C366.873896,59.5197444 365.178008,58.4108949 363.155989,58.4108949 C361.264422,58.4108949 360.090346,59.2588386 359.503308,60.0415559 L359.459824,60.0415559 L359.459824,58.7152849 L357.720452,58.7152849 L357.720452,69.80378 L359.459824,69.80378 Z M370.091734,56.5628123 C370.591803,56.5628123 371.178841,56.1931958 371.178841,55.5191893 C371.178841,54.8451827 370.591803,54.4755662 370.091734,54.4755662 C369.613406,54.4755662 369.004626,54.8451827 369.004626,55.5191893 C369.004626,56.1931958 369.613406,56.5628123 370.091734,56.5628123 Z M369.004626,73.5434293 C370.483092,73.5434293 370.96142,72.4128377 370.96142,70.5647552 L370.96142,58.7152849 L369.222048,58.7152849 L369.222048,70.7386923 C369.222048,71.9997369 368.874173,72.1084476 367.395707,71.9997369 L367.395707,73.3042657 C368.02623,73.4782029 368.461073,73.5434293 369.004626,73.5434293 Z M378.35375,70.1081701 C381.115002,70.1081701 382.702179,68.4557669 383.267475,66.3902629 L381.528103,66.3902629 C381.332424,67.151238 380.506222,68.5862198 378.288523,68.5862198 C375.875145,68.5862198 374.679327,66.7163951 374.679327,64.7161176 L383.441412,64.7161176 C383.441412,60.7807889 381.745525,58.4108949 378.266781,58.4108949 C375.027201,58.4108949 372.939955,60.5633674 372.939955,64.2595325 C372.939955,67.738276 374.983717,70.1081701 378.35375,70.1081701 Z M381.70204,63.1941672 L374.679327,63.1941672 C374.679327,61.4113112 376.179535,59.9328452 378.266781,59.9328452 C380.354027,59.9328452 381.70204,61.4113112 381.70204,63.1941672 Z M389.89883,70.1081701 C392.63834,70.1081701 394.616876,68.2383454 394.769071,65.7162563 L393.029699,65.7162563 C392.94273,67.0425273 392.138271,68.5862198 389.89883,68.5862198 C387.26803,68.5862198 386.267891,66.3467786 386.267891,64.2595325 C386.267891,62.1722863 387.26803,59.9328452 389.89883,59.9328452 C392.116529,59.9328452 392.94273,61.4982798 393.029699,62.71584 L394.769071,62.71584 C394.508165,60.2372352 392.63834,58.4108949 389.89883,58.4108949 C386.65925,58.4108949 384.528519,60.7807889 384.528519,64.2595325 C384.528519,67.738276 386.65925,70.1081701 389.89883,70.1081701 Z M399.965444,69.9342329 C400.422029,69.9342329 400.878614,69.8907486 401.269973,69.80378 L401.269973,68.2818297 C399.791507,68.3905404 399.095758,68.173119 399.095758,66.9120744 L399.095758,60.2372352 L401.269973,60.2372352 L401.269973,58.7152849 L399.095758,58.7152849 L399.095758,55.0191199 L397.356386,55.0191199 L397.356386,58.7152849 L395.725725,58.7152849 L395.725725,60.2372352 L397.356386,60.2372352 L397.356386,67.0860116 C397.356386,69.3471949 398.486978,69.9342329 399.965444,69.9342329 Z M407.879586,70.1081701 C410.640838,70.1081701 412.228015,68.4557669 412.793311,66.3902629 L411.053939,66.3902629 C410.85826,67.151238 410.032058,68.5862198 407.814359,68.5862198 C405.400981,68.5862198 404.205163,66.7163951 404.205163,64.7161176 L412.967248,64.7161176 C412.967248,60.7807889 411.271361,58.4108949 407.792617,58.4108949 C404.553037,58.4108949 402.465791,60.5633674 402.465791,64.2595325 C402.465791,67.738276 404.509553,70.1081701 407.879586,70.1081701 Z M411.227876,63.1941672 L404.205163,63.1941672 C404.205163,61.4113112 405.705371,59.9328452 407.792617,59.9328452 C409.879863,59.9328452 411.227876,61.4113112 411.227876,63.1941672 Z M419.055049,70.1081701 C420.837905,70.1081701 421.881528,69.2819685 422.533793,68.4340247 L422.577277,68.4340247 L422.577277,69.80378 L424.316649,69.80378 L424.316649,54.2581447 L422.577277,54.2581447 L422.577277,60.1502666 L422.533793,60.1502666 C421.881528,59.1936122 420.837905,58.4108949 419.055049,58.4108949 C416.272054,58.4108949 414.054355,60.6068517 414.054355,64.2595325 C414.054355,67.9122132 416.272054,70.1081701 419.055049,70.1081701 Z M419.228986,68.5862198 C416.946061,68.5862198 415.793727,66.4337472 415.793727,64.2595325 C415.793727,62.0853177 416.946061,59.9328452 419.228986,59.9328452 C421.29449,59.9328452 422.577277,61.6504748 422.577277,64.2595325 C422.577277,66.8685901 421.29449,68.5862198 419.228986,68.5862198 Z M433.274414,69.80378 L433.274414,57.0193974 L433.317898,57.0193974 L438.014202,69.80378 L439.753573,69.80378 L444.449877,57.0193974 L444.493361,57.0193974 L444.493361,69.80378 L446.450155,69.80378 L446.450155,54.2581447 L443.775871,54.2581447 L438.90563,67.1729802 L438.862145,67.1729802 L433.991904,54.2581447 L431.31762,54.2581447 L431.31762,69.80378 L433.274414,69.80378 Z M455.973215,70.1081701 C459.799833,70.1081701 462.234954,67.6295653 462.582828,64.194306 L460.626035,64.194306 C460.495582,66.1510993 459.234537,68.3687983 455.973215,68.3687983 C452.27705,68.3687983 450.733358,65.1727026 450.733358,62.0200913 C450.733358,58.8892221 452.27705,55.6931265 455.973215,55.6931265 C459.212795,55.6931265 460.343387,57.9108255 460.626035,59.3892915 L462.582828,59.3892915 C462.213211,56.4323595 459.778091,53.9537547 455.973215,53.9537547 C451.711754,53.9537547 448.776564,57.3455296 448.776564,62.0200913 C448.776564,66.7163951 451.711754,70.1081701 455.973215,70.1081701 Z M466.735578,69.80378 L466.735578,63.302878 L470.953555,63.302878 C473.801776,63.302878 475.997733,62.0418334 475.997733,58.7805114 C475.997733,55.5191893 473.801776,54.2581447 470.953555,54.2581447 L464.778785,54.2581447 L464.778785,69.80378 L466.735578,69.80378 Z M471.170976,61.5635062 L466.735578,61.5635062 L466.735578,55.9975165 L471.170976,55.9975165 C473.106027,55.9975165 474.04094,56.8889446 474.04094,58.7805114 C474.04094,60.6720782 473.106027,61.5635062 471.170976,61.5635062 Z M386.15918,96.8467117 C390.094509,96.8467117 391.768654,94.7377234 391.768654,92.4765401 C391.768654,88.9325701 389.485729,88.3455322 385.985243,87.4758463 C383.702318,86.9105504 382.028173,86.6279025 382.028173,84.5623985 C382.028173,83.2796119 383.202248,82.4316681 385.398205,82.4316681 C387.855068,82.4316681 389.029144,83.5187755 389.311792,85.6060216 L391.268585,85.6060216 C391.007679,82.3881838 388.703012,80.6922963 385.398205,80.6922963 C381.962946,80.6922963 380.071379,82.3229574 380.071379,84.77982 C380.071379,87.8019785 382.854374,88.6064379 385.180784,89.1499916 C388.659527,89.9544511 389.811861,90.3458097 389.811861,92.4765401 C389.811861,93.8680376 388.855207,95.1073399 386.15918,95.1073399 C382.897858,95.1073399 381.59333,93.4549368 381.375908,91.3242063 L379.419115,91.3242063 C379.636536,94.8899185 382.484758,96.8467117 386.15918,96.8467117 Z M398.530462,96.8467117 C401.291715,96.8467117 402.878892,95.1943085 403.444188,93.1288045 L401.704816,93.1288045 C401.509136,93.8897797 400.682935,95.3247614 398.465236,95.3247614 C396.051857,95.3247614 394.856039,93.4549368 394.856039,91.4546592 L403.618125,91.4546592 C403.618125,87.5193306 401.922237,85.1494365 398.443494,85.1494365 C395.203914,85.1494365 393.116668,87.3019091 393.116668,90.9980741 C393.116668,94.4768177 395.160429,96.8467117 398.530462,96.8467117 Z M401.878753,89.9327089 L394.856039,89.9327089 C394.856039,88.1498528 396.356248,86.6713868 398.443494,86.6713868 C400.53074,86.6713868 401.878753,88.1498528 401.878753,89.9327089 Z M407.075126,96.5423217 L407.075126,90.6284576 C407.075126,88.2585636 408.749271,86.5626761 411.16265,86.9540347 L411.206134,86.9540347 L411.206134,85.214663 C410.901744,85.1711787 410.597354,85.1494365 410.184253,85.1494365 C408.597076,85.1494365 407.705648,86.1930596 407.11861,87.6497834 L407.075126,87.6497834 L407.075126,85.4538266 L405.335754,85.4538266 L405.335754,96.5423217 L407.075126,96.5423217 Z M417.598325,96.5423217 L421.577138,85.4538266 L419.685571,85.4538266 L416.619929,94.8029499 L416.598187,94.8029499 L413.532544,85.4538266 L411.640977,85.4538266 L415.61979,96.5423217 L417.598325,96.5423217 Z M423.903548,83.301354 C424.403617,83.301354 424.990655,82.9317375 424.990655,82.2577309 C424.990655,81.5837244 424.403617,81.2141079 423.903548,81.2141079 C423.425221,81.2141079 422.816441,81.5837244 422.816441,82.2577309 C422.816441,82.9317375 423.425221,83.301354 423.903548,83.301354 Z M424.773234,96.5423217 L424.773234,85.4538266 L423.033862,85.4538266 L423.033862,96.5423217 L424.773234,96.5423217 Z M432.12208,96.8467117 C434.86159,96.8467117 436.840126,94.9768871 436.992321,92.454798 L435.252949,92.454798 C435.16598,93.781069 434.361521,95.3247614 432.12208,95.3247614 C429.49128,95.3247614 428.491141,93.0853203 428.491141,90.9980741 C428.491141,88.910828 429.49128,86.6713868 432.12208,86.6713868 C434.339779,86.6713868 435.16598,88.2368214 435.252949,89.4543817 L436.992321,89.4543817 C436.731415,86.9757769 434.86159,85.1494365 432.12208,85.1494365 C428.8825,85.1494365 426.751769,87.5193306 426.751769,90.9980741 C426.751769,94.4768177 428.8825,96.8467117 432.12208,96.8467117 Z M443.449738,96.8467117 C446.210991,96.8467117 447.798168,95.1943085 448.363464,93.1288045 L446.624092,93.1288045 C446.428413,93.8897797 445.602211,95.3247614 443.384512,95.3247614 C440.971134,95.3247614 439.775316,93.4549368 439.775316,91.4546592 L448.537401,91.4546592 C448.537401,87.5193306 446.841513,85.1494365 443.36277,85.1494365 C440.12319,85.1494365 438.035944,87.3019091 438.035944,90.9980741 C438.035944,94.4768177 440.079706,96.8467117 443.449738,96.8467117 Z M446.798029,89.9327089 L439.775316,89.9327089 C439.775316,88.1498528 441.275524,86.6713868 443.36277,86.6713868 C445.450016,86.6713868 446.798029,88.1498528 446.798029,89.9327089 Z" id="InjectedMCPService" fill="#FFFFFF" fill-rule="nonzero"></path>
            <g id="Group-28" transform="translate(352.000000, 134.803780)" fill="#404040">
                <path d="M26.626546,26.5917228 C28.1694457,26.5917228 29.3761632,25.997211 30.2466984,24.8081873 C31.1172336,23.6191637 31.5525012,22.1258066 31.5525012,20.328116 C31.5525012,18.4313402 31.1119254,16.9963726 30.230774,16.0232134 C29.3496225,15.0500542 28.2012946,14.5634745 26.7857902,14.5634745 C26.1063481,14.5634745 25.4764487,14.7067943 24.8960919,14.993434 C24.3157351,15.2800736 23.8167698,15.695878 23.399196,16.2408472 L23.399196,16.2408472 L23.399196,10.5823685 L21.5413466,10.5823685 L21.5413466,26.2307692 L23.3036495,26.2307692 L23.3036495,24.7763385 C23.7070682,25.3213077 24.0857157,25.7176489 24.4395918,25.9653622 C25.0341036,26.3829359 25.7630883,26.5917228 26.626546,26.5917228 Z M26.5097669,24.9037339 C25.1367277,24.9037339 24.198956,24.2773732 23.696452,23.0246519 C23.4275061,22.3593648 23.2930332,21.4923684 23.2930332,20.4236626 C23.2930332,18.9444605 23.6203686,17.8828323 24.2750394,17.2387778 C24.9297101,16.5947233 25.6923131,16.272696 26.5628483,16.272696 C27.5607789,16.272696 28.3163043,16.6654985 28.8294247,17.4511034 C29.342545,18.2367083 29.5991052,19.2275614 29.5991052,20.4236626 C29.5991052,21.7683917 29.342545,22.8512526 28.8294247,23.6722451 C28.3163043,24.4932376 27.5430851,24.9037339 26.5097669,24.9037339 Z M36.83941,26.6129554 C37.7170227,26.6129554 38.5203214,26.4254011 39.2493061,26.0502924 C39.9782909,25.6751838 40.5374151,25.2328387 40.9266788,24.7232571 C40.9903765,25.1762185 41.1000781,25.5265558 41.2557836,25.7742691 C41.5530395,26.2413855 42.0307722,26.4749437 42.6889817,26.4749437 C42.9579276,26.4749437 43.1702532,26.4643275 43.3259587,26.4430949 C43.4816642,26.4218623 43.7081449,26.3687809 44.0054008,26.2838506 L44.0054008,26.2838506 L44.0054008,24.871885 C43.8850829,24.8931176 43.7718426,24.909042 43.6656798,24.9196583 C43.5595169,24.9302746 43.4639704,24.9355827 43.3790401,24.9355827 C43.1171718,24.9355827 42.9455419,24.8754238 42.8641504,24.7551059 C42.7827589,24.6347881 42.7420632,24.4755438 42.7420632,24.2773732 L42.7420632,24.2773732 L42.7420632,17.7271268 C42.7420632,16.6513435 42.3280281,15.858661 41.4999581,15.3490794 C40.6648105,14.8394979 39.5784109,14.5847071 38.2407593,14.5847071 C37.0871232,14.5847071 36.0732682,14.8589611 35.1991943,15.407469 C34.3251203,15.9559769 33.8703896,16.9309056 33.835002,18.3322549 L33.835002,18.3322549 L35.6185375,18.3322549 C35.6893127,17.7448206 35.8414794,17.3024755 36.0750376,17.0052196 C36.4926114,16.4673279 37.2003636,16.1983821 38.1982942,16.1983821 C39.0617518,16.1983821 39.7252695,16.3452406 40.1888472,16.6389578 C40.6524248,16.932675 40.8842137,17.4050995 40.8842137,18.0562315 C40.8842137,18.37472 40.8417485,18.6188945 40.7568183,18.788755 C40.6081903,19.100166 40.3144732,19.2841816 39.8756668,19.3408017 L39.8756668,19.3408017 L36.8287937,19.7229879 C35.7600879,19.8574608 34.8966302,20.2148757 34.2384207,20.7952325 C33.5802112,21.3755893 33.2511064,22.193043 33.2511064,23.2475938 C33.2511064,24.2101368 33.5855193,25.0116661 34.2543451,25.6521818 C34.9231709,26.2926975 35.7848592,26.6129554 36.83941,26.6129554 Z M37.2852938,24.9886642 C36.7332471,24.9886642 36.2555144,24.8294199 35.8520957,24.5109314 C35.4486769,24.1924429 35.2469676,23.7571754 35.2469676,23.2051287 C35.2469676,22.4761439 35.5406847,21.9453298 36.128119,21.6126862 C36.4749176,21.4145156 36.9951154,21.2694264 37.6887126,21.1774187 L37.6887126,21.1774187 L38.8458874,21.0287907 C39.1997635,20.9863256 39.5607171,20.9155504 39.9287482,20.816465 C40.2967794,20.7173797 40.597574,20.5935231 40.8311323,20.4448952 L40.8311323,20.4448952 L40.8311323,21.9842561 C40.8311323,23.1591248 40.3003181,24.0048886 39.2386899,24.5215477 C38.6087904,24.8329587 37.9576584,24.9886642 37.2852938,24.9886642 Z M49.7488097,26.634188 C50.5344147,26.634188 51.2315506,26.4784825 51.8402174,26.1670715 C52.4488843,25.8556606 52.9761597,25.3496178 53.4220436,24.6489431 L53.4220436,24.6489431 L53.4220436,26.2307692 L55.1418814,26.2307692 L55.1418814,10.5823685 L53.3052645,10.5823685 L53.3052645,16.3257775 C52.8735356,15.7949633 52.4878107,15.4233934 52.1480896,15.2110678 C51.5606553,14.8430366 50.8316706,14.6590211 49.9611354,14.6590211 C48.3899256,14.6590211 47.1814387,15.2659186 46.3356749,16.4797136 C45.489911,17.6935085 45.0670291,19.1284761 45.0670291,20.7846162 C45.0670291,22.5539967 45.5306067,23.9712704 46.4577621,25.0364374 C47.3849175,26.1016045 48.4819333,26.634188 49.7488097,26.634188 Z M50.3433216,24.9674316 C49.2038406,24.9674316 48.3757705,24.5569353 47.8591114,23.7359428 C47.3424523,22.9149503 47.0841228,21.8957871 47.0841228,20.6784534 C47.0841228,19.248794 47.3831481,18.1659331 47.9811987,17.4298709 C48.5792493,16.6938086 49.359546,16.3257775 50.322089,16.3257775 C51.1855467,16.3257775 51.9109927,16.6708066 52.498427,17.360865 C53.0858613,18.0509234 53.3795784,19.1143211 53.3795784,20.551058 C53.3795784,21.9736399 53.0947082,23.0653476 52.5249677,23.8261812 C51.9552272,24.5870148 51.2280118,24.9674316 50.3433216,24.9674316 Z M68.6564093,28.9485376 L68.6564093,27.8762931 L56.5644633,27.8762931 L56.5644633,28.9485376 L68.6564093,28.9485376 Z M72.7330618,26.411246 C73.0090852,26.411246 73.2656453,26.397091 73.5027423,26.3687809 C73.7398393,26.3404708 73.9680894,26.2944669 74.1874926,26.2307692 L74.1874926,26.2307692 L74.1874926,24.7232571 C74.0459421,24.7374121 73.9220855,24.746259 73.8159227,24.7497978 C73.7097598,24.7533366 73.6106745,24.7551059 73.5186667,24.7551059 C73.1718682,24.7551059 72.9241549,24.7161796 72.775527,24.6383268 C72.5065811,24.5038539 72.3721082,24.2384468 72.3721082,23.8421056 L72.3721082,23.8421056 L72.3721082,16.421324 L74.1874926,16.421324 L74.1874926,14.8607304 L72.3721082,14.8607304 L72.3721082,11.6864619 L70.4399448,11.6864619 L70.4399448,14.8607304 L68.9005838,14.8607304 L68.9005838,16.421324 L70.4399448,16.421324 L70.4399448,23.9482684 C70.4399448,24.6772532 70.599189,25.2699956 70.9176775,25.7264958 C71.236166,26.182996 71.8412941,26.411246 72.7330618,26.411246 Z M80.4298668,26.6448043 C82.3054101,26.6448043 83.6890656,26.0467537 84.5808333,24.8506525 C85.4726011,23.6545513 85.918485,22.1399616 85.918485,20.3068835 C85.918485,18.4101076 85.4124421,16.9733707 84.4003565,15.9966727 C83.3882709,15.0199747 82.1497046,14.5316257 80.6846576,14.5316257 C79.04975,14.5316257 77.747486,15.0978274 76.7778655,16.2302309 C75.8082451,17.3626344 75.3234348,18.8843016 75.3234348,20.7952325 C75.3234348,22.578768 75.7834737,23.9995805 76.7035516,25.05767 C77.6236294,26.1157595 78.8657345,26.6448043 80.4298668,26.6448043 Z M80.6103436,24.9992804 C79.4567075,24.9992804 78.6144824,24.5958617 78.0836683,23.7890242 C77.5528542,22.9821867 77.2874471,21.9736399 77.2874471,20.7633836 C77.2874471,19.5035848 77.5528542,18.4278014 78.0836683,17.5360337 C78.6144824,16.6442659 79.4637851,16.1983821 80.6315762,16.1983821 C81.9479952,16.1983821 82.8751506,16.7221187 83.4130422,17.7695919 C83.7527633,18.434879 83.9226238,19.2983366 83.9226238,20.3599649 C83.9226238,21.5348335 83.6872962,22.6017699 83.216641,23.5607741 C82.7459858,24.5197783 81.87722,24.9992804 80.6103436,24.9992804 Z M92.5218128,26.6448043 C94.3973561,26.6448043 95.7810116,26.0467537 96.6727793,24.8506525 C97.5645471,23.6545513 98.010431,22.1399616 98.010431,20.3068835 C98.010431,18.4101076 97.5043882,16.9733707 96.4923025,15.9966727 C95.4802169,15.0199747 94.2416506,14.5316257 92.7766036,14.5316257 C91.1416961,14.5316257 89.839432,15.0978274 88.8698116,16.2302309 C87.9001911,17.3626344 87.4153808,18.8843016 87.4153808,20.7952325 C87.4153808,22.578768 87.8754197,23.9995805 88.7954976,25.05767 C89.7155754,26.1157595 90.9576805,26.6448043 92.5218128,26.6448043 Z M92.7022896,24.9992804 C91.5486536,24.9992804 90.7064285,24.5958617 90.1756143,23.7890242 C89.6448002,22.9821867 89.3793931,21.9736399 89.3793931,20.7633836 C89.3793931,19.5035848 89.6448002,18.4278014 90.1756143,17.5360337 C90.7064285,16.6442659 91.5557311,16.1983821 92.7235222,16.1983821 C94.0399412,16.1983821 94.9670966,16.7221187 95.5049882,17.7695919 C95.8447093,18.434879 96.0145698,19.2983366 96.0145698,20.3599649 C96.0145698,21.5348335 95.7792422,22.6017699 95.308587,23.5607741 C94.8379318,24.5197783 93.969166,24.9992804 92.7022896,24.9992804 Z M102.246328,26.2307692 L102.246328,10.6354499 L100.335397,10.6354499 L100.335397,26.2307692 L102.246328,26.2307692 Z" id="bad_tool" fill-rule="nonzero"></path>
                <text id="😈" font-family="AppleColorEmoji, Apple Color Emoji" font-size="9.05922792" font-weight="normal">
                    <tspan x="101" y="11">😈</tspan>
                </text>
            </g>
            <path d="M318.32674,10.80378 L318.32674,6.3726 L321.20182,6.3726 C323.14324,6.3726 324.64006,5.51304 324.64006,3.29004 C324.64006,1.06704 323.14324,0.20748 321.20182,0.20748 L316.99294,0.20748 L316.99294,10.80378 L318.32674,10.80378 Z M321.35002,5.187 L318.32674,5.187 L318.32674,1.39308 L321.35002,1.39308 C322.669,1.39308 323.30626,2.0007 323.30626,3.29004 C323.30626,4.57938 322.669,5.187 321.35002,5.187 Z M329.02678,11.01126 C331.32388,11.01126 332.71696,9.38106 332.71696,7.02468 C332.71696,4.6683 331.32388,3.0381 329.02678,3.0381 C326.71486,3.0381 325.32178,4.6683 325.32178,7.02468 C325.32178,9.38106 326.71486,11.01126 329.02678,11.01126 Z M329.02678,9.97386 C327.32248,9.97386 326.50738,8.64006 326.50738,7.02468 C326.50738,5.4093 327.32248,4.0755 329.02678,4.0755 C330.71626,4.0755 331.53136,5.4093 331.53136,7.02468 C331.53136,8.64006 330.71626,9.97386 329.02678,9.97386 Z M334.65838,1.7784 C334.99924,1.7784 335.39938,1.52646 335.39938,1.06704 C335.39938,0.60762 334.99924,0.35568 334.65838,0.35568 C334.33234,0.35568 333.91738,0.60762 333.91738,1.06704 C333.91738,1.52646 334.33234,1.7784 334.65838,1.7784 Z M335.25118,10.80378 L335.25118,3.24558 L334.06558,3.24558 L334.06558,10.80378 L335.25118,10.80378 Z M339.99358,11.01126 C341.7127,11.01126 342.9724,10.10724 342.9724,8.72898 C342.9724,7.06173 341.755515,6.70587987 340.534833,6.41669679 L340.242418,6.34793556 C340.193877,6.33647625 340.145485,6.32496429 340.09732,6.31332 C339.0451,6.06138 338.02252,5.98728 338.02252,5.09808 C338.02252,4.50528 338.6005,4.0755 339.66754,4.0755 C341.09026,4.0755 341.37184,4.83132 341.4904,5.4093 L342.676,5.4093 C342.55744,4.10514 341.54968,3.0381 339.66754,3.0381 C337.88914,3.0381 336.83692,4.0014 336.83692,5.187 C336.83692,6.9654 338.55604,7.09878 339.712,7.38036 C340.79386,7.64712 341.7868,7.7064 341.7868,8.80308 C341.7868,9.30696 341.28292,9.97386 339.99358,9.97386 C338.09662,9.97386 337.80022,9.12912 337.72612,8.28438 L336.54052,8.28438 C336.61462,9.91458 337.68166,11.01126 339.99358,11.01126 Z M347.40358,11.01126 C349.70068,11.01126 351.09376,9.38106 351.09376,7.02468 C351.09376,4.6683 349.70068,3.0381 347.40358,3.0381 C345.09166,3.0381 343.69858,4.6683 343.69858,7.02468 C343.69858,9.38106 345.09166,11.01126 347.40358,11.01126 Z M347.40358,9.97386 C345.69928,9.97386 344.88418,8.64006 344.88418,7.02468 C344.88418,5.4093 345.69928,4.0755 347.40358,4.0755 C349.09306,4.0755 349.90816,5.4093 349.90816,7.02468 C349.90816,8.64006 349.09306,9.97386 347.40358,9.97386 Z M353.47978,10.80378 L353.47978,6.09102 C353.47978,4.92024 354.36898,4.0755 355.70278,4.0755 C356.88838,4.0755 357.3478,4.84614 357.3478,5.82426 L357.3478,10.80378 L358.5334,10.80378 L358.5334,5.52786 C358.5334,3.79392 357.37744,3.0381 355.99918,3.0381 C354.70984,3.0381 353.90956,3.61608 353.50942,4.1496 L353.47978,4.1496 L353.47978,3.24558 L352.29418,3.24558 L352.29418,10.80378 L353.47978,10.80378 Z M363.37954,11.01126 C365.26168,11.01126 366.34354,9.88494 366.72886,8.47704 L365.54326,8.47704 C365.40988,8.99574 364.84672,9.97386 363.33508,9.97386 C361.69006,9.97386 360.87496,8.69934 360.87496,7.3359 L366.84742,7.3359 C366.84742,4.65348 365.69146,3.0381 363.32026,3.0381 C361.11208,3.0381 359.68936,4.50528 359.68936,7.02468 C359.68936,9.39588 361.08244,11.01126 363.37954,11.01126 Z M365.66182,6.2985 L360.87496,6.2985 C360.87496,5.08326 361.89754,4.0755 363.32026,4.0755 C364.74298,4.0755 365.66182,5.08326 365.66182,6.2985 Z M370.99702,11.01126 C372.21226,11.01126 372.92362,10.4481 373.36822,9.87012 L373.39786,9.87012 L373.39786,10.80378 L374.58346,10.80378 L374.58346,0.20748 L373.39786,0.20748 L373.39786,4.2237 L373.36822,4.2237 C372.92362,3.57162 372.21226,3.0381 370.99702,3.0381 C369.10006,3.0381 367.58842,4.53492 367.58842,7.02468 C367.58842,9.51444 369.10006,11.01126 370.99702,11.01126 Z M371.11558,9.97386 C369.55948,9.97386 368.77402,8.50668 368.77402,7.02468 C368.77402,5.54268 369.55948,4.0755 371.11558,4.0755 C372.52348,4.0755 373.39786,5.24628 373.39786,7.02468 C373.39786,8.80308 372.52348,9.97386 371.11558,9.97386 Z M383.86078,11.01126 C386.4691,11.01126 388.12894,9.32178 388.36606,6.98022 L387.03226,6.98022 C386.94334,8.31402 386.08378,9.82566 383.86078,9.82566 C381.34138,9.82566 380.28916,7.64712 380.28916,5.49822 C380.28916,3.36414 381.34138,1.1856 383.86078,1.1856 C386.06896,1.1856 386.8396,2.69724 387.03226,3.705 L388.36606,3.705 C388.11412,1.68948 386.45428,0 383.86078,0 C380.95606,0 378.95536,2.31192 378.95536,5.49822 C378.95536,8.69934 380.95606,11.01126 383.86078,11.01126 Z M392.96026,11.01126 C395.25736,11.01126 396.65044,9.38106 396.65044,7.02468 C396.65044,4.6683 395.25736,3.0381 392.96026,3.0381 C390.64834,3.0381 389.25526,4.6683 389.25526,7.02468 C389.25526,9.38106 390.64834,11.01126 392.96026,11.01126 Z M392.96026,9.97386 C391.25596,9.97386 390.44086,8.64006 390.44086,7.02468 C390.44086,5.4093 391.25596,4.0755 392.96026,4.0755 C394.64974,4.0755 395.46484,5.4093 395.46484,7.02468 C395.46484,8.64006 394.64974,9.97386 392.96026,9.97386 Z M399.03646,10.80378 L399.03646,6.09102 C399.03646,4.92024 399.92566,4.0755 401.25946,4.0755 C402.44506,4.0755 402.90448,4.84614 402.90448,5.82426 L402.90448,10.80378 L404.09008,10.80378 L404.09008,5.52786 C404.09008,3.79392 402.93412,3.0381 401.55586,3.0381 C400.26652,3.0381 399.46624,3.61608 399.0661,4.1496 L399.03646,4.1496 L399.03646,3.24558 L397.85086,3.24558 L397.85086,10.80378 L399.03646,10.80378 Z M408.07666,10.8927 C408.38788,10.8927 408.6991,10.86306 408.96586,10.80378 L408.96586,9.76638 C407.9581,9.84048 407.48386,9.69228 407.48386,8.83272 L407.48386,4.28298 L408.96586,4.28298 L408.96586,3.24558 L407.48386,3.24558 L407.48386,0.72618 L406.29826,0.72618 L406.29826,3.24558 L405.18676,3.24558 L405.18676,4.28298 L406.29826,4.28298 L406.29826,8.95128 C406.29826,10.49256 407.0689,10.8927 408.07666,10.8927 Z M413.47114,11.01126 C415.35328,11.01126 416.43514,9.88494 416.82046,8.47704 L415.63486,8.47704 C415.50148,8.99574 414.93832,9.97386 413.42668,9.97386 C411.78166,9.97386 410.96656,8.69934 410.96656,7.3359 L416.93902,7.3359 C416.93902,4.65348 415.78306,3.0381 413.41186,3.0381 C411.20368,3.0381 409.78096,4.50528 409.78096,7.02468 C409.78096,9.39588 411.17404,11.01126 413.47114,11.01126 Z M415.75342,6.2985 L410.96656,6.2985 C410.96656,5.08326 411.98914,4.0755 413.41186,4.0755 C414.83458,4.0755 415.75342,5.08326 415.75342,6.2985 Z M418.79152,10.80378 L420.9997,7.72122 L421.02934,7.72122 L423.25234,10.80378 L424.66024,10.80378 L421.72588,6.93576 L424.39348,3.24558 L422.98558,3.24558 L421.02934,6.13548 L420.9997,6.13548 L419.04346,3.24558 L417.63556,3.24558 L420.30316,6.93576 L417.38362,10.80378 L418.79152,10.80378 Z M427.9651,10.8927 C428.27632,10.8927 428.58754,10.86306 428.8543,10.80378 L428.8543,9.76638 C427.84654,9.84048 427.3723,9.69228 427.3723,8.83272 L427.3723,4.28298 L428.8543,4.28298 L428.8543,3.24558 L427.3723,3.24558 L427.3723,0.72618 L426.1867,0.72618 L426.1867,3.24558 L425.0752,3.24558 L425.0752,4.28298 L426.1867,4.28298 L426.1867,8.95128 C426.1867,10.49256 426.95734,10.8927 427.9651,10.8927 Z" id="PoisonedContext" fill="#404040" fill-rule="nonzero"></path>
            <g id="Group-4" transform="translate(353.000000, 217.803780)">
                <g id="Group" transform="translate(30.500000, 30.500000) rotate(90.000000) translate(-30.500000, -30.500000) ">
                    <circle id="Oval" fill="#FF4572" cx="30.5" cy="30.5" r="30.5"></circle>
                    <g id="arrow-right-2" transform="translate(15.000000, 19.000000)" fill="#FFFFFF" fill-rule="nonzero">
                        <g id="arrow-right">
                            <path d="M19.9921381,0.460513832 C20.5468652,-0.102336407 21.4175337,-0.149240594 22.0249178,0.319801272 L22.1836051,0.460513832 L27.8382594,6.19797133 C30.6244988,9.02490043 30.7173735,13.5468947 28.1169058,16.501991 L27.8382842,16.8019674 L22.1836085,22.5394827 C21.5784535,23.153503 20.5973003,23.1535062 19.9921415,22.5394897 C19.4374126,21.9766412 19.3911826,21.0932233 19.8534534,20.4769436 L19.9921346,20.3159322 L25.6436974,14.5815844 C27.2436392,12.9489406 27.3163638,10.3670434 25.8645817,8.65936117 L25.6468138,8.4215505 L19.9921381,2.68407131 C19.3869812,2.07005287 19.3869812,1.07453228 19.9921381,0.460513832 Z" id="Path"></path>
                            <path d="M21.1052908,9.92365857 C21.9611119,9.92365857 22.654892,10.6275979 22.654892,11.4959511 C22.654892,12.2975079 22.0637421,12.9589725 21.2996695,13.0559933 L21.1052908,13.0682437 L1.54960118,13.0682437 C0.693780081,13.0682437 0,12.3643043 0,11.4959511 C0,10.6943943 0.591149892,10.0329298 1.3552225,9.93590896 L1.54960118,9.92365857 L21.1052908,9.92365857 Z" id="Path"></path>
                        </g>
                    </g>
                </g>
                <g id="Group-Copy-5" transform="translate(91.500000, 30.500000) rotate(-90.000000) translate(-91.500000, -30.500000) translate(61.000000, 0.000000)">
                    <circle id="Oval" fill="#BDB8FF" cx="30.5" cy="30.5" r="30.5"></circle>
                    <g id="arrow-right-2" transform="translate(15.000000, 19.000000)" fill="#2F2E6B" fill-rule="nonzero">
                        <g id="arrow-right">
                            <path d="M19.9921381,0.460513832 C20.5468652,-0.102336407 21.4175337,-0.149240594 22.0249178,0.319801272 L22.1836051,0.460513832 L27.8382594,6.19797133 C30.6244988,9.02490043 30.7173735,13.5468947 28.1169058,16.501991 L27.8382842,16.8019674 L22.1836085,22.5394827 C21.5784535,23.153503 20.5973003,23.1535062 19.9921415,22.5394897 C19.4374126,21.9766412 19.3911826,21.0932233 19.8534534,20.4769436 L19.9921346,20.3159322 L25.6436974,14.5815844 C27.2436392,12.9489406 27.3163638,10.3670434 25.8645817,8.65936117 L25.6468138,8.4215505 L19.9921381,2.68407131 C19.3869812,2.07005287 19.3869812,1.07453228 19.9921381,0.460513832 Z" id="Path"></path>
                            <path d="M21.1052908,9.92365857 C21.9611119,9.92365857 22.654892,10.6275979 22.654892,11.4959511 C22.654892,12.2975079 22.0637421,12.9589725 21.2996695,13.0559933 L21.1052908,13.0682437 L1.54960118,13.0682437 C0.693780081,13.0682437 0,12.3643043 0,11.4959511 C0,10.6943943 0.591149892,10.0329298 1.3552225,9.93590896 L1.54960118,9.92365857 L21.1052908,9.92365857 Z" id="Path"></path>
                        </g>
                    </g>
                </g>
            </g>
            <path d="M380.967823,397.80378 L382.757342,392.719274 L391.704937,392.719274 L393.494456,397.80378 L396.136127,397.80378 L388.665595,377.49416 L385.825089,377.49416 L378.326152,397.80378 L380.967823,397.80378 Z M390.88119,390.446869 L383.609494,390.446869 L387.216937,379.85178 L387.273747,379.85178 L390.88119,390.446869 Z M404.146354,402.831476 C408.123063,402.831476 410.565899,400.871527 410.565899,397.008438 L410.565899,383.317198 L408.293494,383.317198 L408.293494,385.106717 L408.236684,385.106717 C407.384532,383.998919 406.021089,382.919527 403.635063,382.919527 C400.056025,382.919527 397.158709,385.220337 397.158709,389.992388 C397.158709,394.764438 400.056025,397.065248 403.635063,397.065248 C406.021089,397.065248 407.384532,396.042666 408.236684,394.792843 L408.293494,394.792843 L408.293494,396.980033 C408.293494,399.678514 406.731215,400.843122 404.032734,400.843122 C401.334253,400.843122 400.141241,399.735324 399.85719,398.258261 L397.584785,398.258261 C397.812025,400.729502 400.169646,402.831476 404.146354,402.831476 Z M403.919114,395.076894 C400.936582,395.076894 399.431114,392.832894 399.431114,389.992388 C399.431114,387.151881 400.936582,384.907881 403.919114,384.907881 C406.617595,384.907881 408.293494,386.58378 408.293494,389.992388 C408.293494,393.400995 406.617595,395.076894 403.919114,395.076894 Z M419.93957,398.201451 C423.547013,398.201451 425.620582,396.042666 426.359114,393.344185 L424.086709,393.344185 C423.831063,394.338362 422.751671,396.213096 419.854354,396.213096 C416.701392,396.213096 415.139114,393.770261 415.139114,391.156995 L426.586354,391.156995 C426.586354,386.015679 424.370759,382.919527 419.825949,382.919527 C415.593595,382.919527 412.866709,385.731628 412.866709,390.560489 C412.866709,395.105299 415.536785,398.201451 419.93957,398.201451 Z M424.313949,389.168641 L415.139114,389.168641 C415.139114,386.839426 417.099063,384.907881 419.825949,384.907881 C422.552835,384.907881 424.313949,386.839426 424.313949,389.168641 Z M431.102759,397.80378 L431.102759,388.77097 C431.102759,386.52697 432.807063,384.907881 435.363519,384.907881 C437.635924,384.907881 438.516481,386.384945 438.516481,388.259679 L438.516481,397.80378 L440.788886,397.80378 L440.788886,387.691577 C440.788886,384.368185 438.573291,382.919527 435.93162,382.919527 C433.46038,382.919527 431.926506,384.027324 431.15957,385.049907 L431.102759,385.049907 L431.102759,383.317198 L428.830354,383.317198 L428.830354,397.80378 L431.102759,397.80378 Z M448.429848,397.97421 C449.026354,397.97421 449.622861,397.9174 450.134152,397.80378 L450.134152,395.815426 C448.202608,395.957451 447.293646,395.6734 447.293646,394.025907 L447.293646,385.305552 L450.134152,385.305552 L450.134152,383.317198 L447.293646,383.317198 L447.293646,378.488337 L445.021241,378.488337 L445.021241,383.317198 L442.890861,383.317198 L442.890861,385.305552 L445.021241,385.305552 L445.021241,394.253147 C445.021241,397.207274 446.498304,397.97421 448.429848,397.97421 Z" id="Agent" fill="#FFFFFF" fill-rule="nonzero"></path>
            <path d="M56.6993928,396.166149 C61.6431429,396.166149 63.7914741,393.422497 63.7914741,389.643505 L63.7914741,377.297071 L61.4619583,377.297071 L61.4619583,389.643505 C61.4619583,392.645992 59.9089478,394.095468 56.6993928,394.095468 C53.4898377,394.095468 51.9368272,392.645992 51.9368272,389.643505 L51.9368272,377.297071 L49.6073114,377.297071 L49.6073114,389.643505 C49.6073114,393.422497 51.7556426,396.166149 56.6993928,396.166149 Z M71.8153618,396.166149 C74.8178488,396.166149 77.017947,394.587255 77.017947,392.180089 C77.017947,389.407965 75.091761,388.711634 73.0673956,388.215402 L72.7095076,388.129527 L72.7095076,388.129527 L72.3518137,388.045515 C72.2328628,388.017568 72.1143163,387.989549 71.9965463,387.961077 C70.1588172,387.521057 68.3728551,387.39164 68.3728551,385.838629 C68.3728551,384.803289 69.382312,384.052667 71.2459246,384.052667 C73.7307414,384.052667 74.2225281,385.372726 74.4295961,386.382183 L76.5002768,386.382183 C76.2932088,384.104434 74.5331302,382.240822 71.2459246,382.240822 C68.1399036,382.240822 66.3021744,383.92325 66.3021744,385.99393 C66.3021744,389.099951 69.3046614,389.332903 71.3235751,389.82469 C73.2130712,390.290593 74.9472663,390.394127 74.9472663,392.309506 C74.9472663,393.189546 74.067227,394.354304 71.8153618,394.354304 C68.5022727,394.354304 67.9846025,392.878944 67.855185,391.403584 L65.7845043,391.403584 C65.9139218,394.250769 67.7775344,396.166149 71.8153618,396.166149 Z M84.7312326,396.166149 C88.0184381,396.166149 89.9079343,394.199002 90.5809055,391.740069 L88.5102248,391.740069 C88.2772732,392.645992 87.2936999,394.354304 84.653582,394.354304 C81.7805126,394.354304 80.3569196,392.128322 80.3569196,389.747039 L90.7879736,389.747039 C90.7879736,385.062124 88.7690599,382.240822 84.6276985,382.240822 C80.7710557,382.240822 78.2862389,384.803289 78.2862389,389.203485 C78.2862389,393.344847 80.7192887,396.166149 84.7312326,396.166149 Z M88.7172929,387.935193 L80.3569196,387.935193 C80.3569196,385.812746 82.1428817,384.052667 84.6276985,384.052667 C87.1125153,384.052667 88.7172929,385.812746 88.7172929,387.935193 Z M94.9034514,395.80378 L94.9034514,388.763466 C94.9034514,385.942163 96.8964816,383.92325 99.769551,384.389153 L99.8213181,384.389153 L99.8213181,382.318472 C99.4589489,382.266705 99.0965798,382.240822 98.6047932,382.240822 C96.715297,382.240822 95.6540732,383.48323 94.9552184,385.217425 L94.9034514,385.217425 L94.9034514,382.603191 L92.8327707,382.603191 L92.8327707,395.80378 L94.9034514,395.80378 Z M109.527634,395.80378 L109.527634,388.323446 L114.833753,388.323446 C119.518668,388.323446 117.75859,395.027275 118.560978,395.80378 L121.071679,395.80378 L121.071679,395.648479 C120.113989,395.337877 121.615232,388.064611 117.499754,387.262222 L117.499754,387.210455 C119.544552,386.692785 120.812844,385.217425 120.812844,382.551424 C120.812844,379.264218 118.35391,377.297071 114.704335,377.297071 L107.198118,377.297071 L107.198118,395.80378 L109.527634,395.80378 Z M114.305312,386.252286 L109.527634,386.252765 L109.527634,379.367752 L114.160782,379.367752 C116.076161,379.367752 118.483328,379.600704 118.483328,382.810259 C118.483328,385.939575 116.195015,386.239257 114.305312,386.252286 L114.305312,386.252286 Z M128.966149,396.166149 C132.253354,396.166149 134.14285,394.199002 134.815822,391.740069 L132.745141,391.740069 C132.512189,392.645992 131.528616,394.354304 128.888498,394.354304 C126.015429,394.354304 124.591836,392.128322 124.591836,389.747039 L135.02289,389.747039 C135.02289,385.062124 133.003976,382.240822 128.862615,382.240822 C125.005972,382.240822 122.521155,384.803289 122.521155,389.203485 C122.521155,393.344847 124.954205,396.166149 128.966149,396.166149 Z M132.952209,387.935193 L124.591836,387.935193 C124.591836,385.812746 126.377798,384.052667 128.862615,384.052667 C131.347432,384.052667 132.952209,385.812746 132.952209,387.935193 Z M148.611732,400.255743 L148.611732,382.603191 L146.541051,382.603191 L146.541051,384.233852 L146.489284,384.233852 C145.712779,383.224395 144.47037,382.240822 142.296156,382.240822 C139.034834,382.240822 136.394716,384.855056 136.394716,389.203485 C136.394716,393.551915 139.034834,396.166149 142.296156,396.166149 C144.47037,396.166149 145.712779,395.234343 146.489284,394.095468 L146.541051,394.095468 L146.541051,400.255743 L148.611732,400.255743 Z M142.554991,394.354304 C139.837222,394.354304 138.465396,391.791836 138.465396,389.203485 C138.465396,386.615134 139.837222,384.052667 142.554991,384.052667 C145.013924,384.052667 146.541051,386.097464 146.541051,389.203485 C146.541051,392.309506 145.013924,394.354304 142.554991,394.354304 Z M155.807347,396.166149 C158.059212,396.166149 159.456922,395.156692 160.155777,394.224886 L160.207544,394.224886 L160.207544,395.80378 L162.278224,395.80378 L162.278224,382.603191 L160.207544,382.603191 L160.207544,390.834146 C160.207544,392.878944 158.654533,394.354304 156.325017,394.354304 C154.254337,394.354304 153.451948,393.008361 153.451948,391.30005 L153.451948,382.603191 L151.381267,382.603191 L151.381267,391.81772 C151.381267,394.84609 153.400181,396.166149 155.807347,396.166149 Z M170.819782,396.166149 C174.106988,396.166149 175.996484,394.199002 176.669455,391.740069 L174.598774,391.740069 C174.365823,392.645992 173.382249,394.354304 170.742132,394.354304 C167.869062,394.354304 166.445469,392.128322 166.445469,389.747039 L176.876523,389.747039 C176.876523,385.062124 174.857609,382.240822 170.716248,382.240822 C166.859605,382.240822 164.374788,384.803289 164.374788,389.203485 C164.374788,393.344847 166.807838,396.166149 170.819782,396.166149 Z M174.805842,387.935193 L166.445469,387.935193 C166.445469,385.812746 168.231431,384.052667 170.716248,384.052667 C173.201065,384.052667 174.805842,385.812746 174.805842,387.935193 Z M184.098022,396.166149 C187.100509,396.166149 189.300607,394.587255 189.300607,392.180089 C189.300607,389.407965 187.374421,388.711634 185.350056,388.215402 L184.992168,388.129527 L184.992168,388.129527 L184.634474,388.045515 C184.515523,388.017568 184.396977,387.989549 184.279207,387.961077 C182.441477,387.521057 180.655515,387.39164 180.655515,385.838629 C180.655515,384.803289 181.664972,384.052667 183.528585,384.052667 C186.013402,384.052667 186.505188,385.372726 186.712256,386.382183 L188.782937,386.382183 C188.575869,384.104434 186.81579,382.240822 183.528585,382.240822 C180.422564,382.240822 178.584835,383.92325 178.584835,385.99393 C178.584835,389.099951 181.587322,389.332903 183.606235,389.82469 C185.495731,390.290593 187.229927,390.394127 187.229927,392.309506 C187.229927,393.189546 186.349887,394.354304 184.098022,394.354304 C180.784933,394.354304 180.267263,392.878944 180.137845,391.403584 L178.067165,391.403584 C178.196582,394.250769 180.060195,396.166149 184.098022,396.166149 Z M195.512649,395.959081 C196.056203,395.959081 196.599757,395.907314 197.06566,395.80378 L197.06566,393.991934 C195.305581,394.121352 194.477309,393.862517 194.477309,392.361273 L194.477309,384.415036 L197.06566,384.415036 L197.06566,382.603191 L194.477309,382.603191 L194.477309,378.202994 L192.406628,378.202994 L192.406628,382.603191 L190.465365,382.603191 L190.465365,384.415036 L192.406628,384.415036 L192.406628,392.568341 C192.406628,395.260226 193.752571,395.959081 195.512649,395.959081 Z" id="UserRequest" fill="#FFFFFF" fill-rule="nonzero"></path>
        </g>
    </g>
</svg>